/* XPM */
static char *angry_[] = {
/* columns rows colors chars-per-pixel */
"14 14 90 1",
"  c black",
". c gray6",
"X c #2F2B13",
"o c #2F2F2F",
"O c #605221",
"+ c #6F652B",
"@ c gray31",
"# c #5F5F5F",
"$ c #6F6F6F",
"% c #9B6809",
"& c #AD6A14",
"* c #9F903D",
"= c #B48820",
"- c #FB8A0D",
"; c #EC8812",
": c #ED8A13",
"> c #FB8F11",
", c #EC9019",
"< c #FB9012",
"1 c #FB9113",
"2 c #FB9214",
"3 c #FB9314",
"4 c #FB9215",
"5 c #FB9315",
"6 c #FB9415",
"7 c #FB9416",
"8 c #FB9517",
"9 c #FB9617",
"0 c #FB9618",
"q c #FB981A",
"w c #FC9E1F",
"e c #C0982B",
"r c #C7A032",
"t c #D3B03D",
"y c #FCAA2B",
"u c #FDB838",
"i c #FDBA3A",
"p c #FDBB3B",
"a c #FDBD3D",
"s c #FDC03F",
"d c #BFA140",
"f c #DAB943",
"g c #DFBC4B",
"h c #E0C048",
"j c #E0C34C",
"k c #E6C94F",
"l c #FECD4C",
"z c #E6CB51",
"x c #EFCB52",
"c c #EFD85C",
"v c #FED554",
"b c #FED655",
"n c #FED756",
"m c #FED857",
"M c #FED958",
"N c #FEDA58",
"B c #FEDA59",
"V c #FEDB59",
"C c #FEDB5A",
"Z c #FFE15F",
"A c #DFCD62",
"S c #EFE06E",
"D c #FFE361",
"F c #FFE362",
"G c #FFE763",
"H c #FFE965",
"J c #FFE866",
"K c #FFE967",
"L c #FFEA66",
"P c #FFEA68",
"I c #FFEB69",
"U c #FFEC69",
"Y c #FFED6A",
"T c #FFED6B",
"R c #FFEE6C",
"E c #FFEF6C",
"W c #FFEC79",
"Q c #FFED7A",
"! c #9F9B82",
"~ c #FFEC82",
"^ c #FFF085",
"/ c #FFF08E",
"( c #FFF19F",
") c #FFF2A9",
"_ c #FFF5BC",
"` c #FFF9D9",
"' c #EFEFEF",
"] c #FFFEF5",
"[ c gray100",
"{ c None",
/* pixels */
"{{{{{>89>{{{{{",
"{{{;uvZZbi:{{{",
"{{,dYLHHLUx&{{",
"{1g *GGGGcXO4{",
"{uR!  +A  oSp{",
">v^[. )). '/M1",
"8ZQ]$#(($@]WDq",
"0ZP~`_JJ_`~KFq",
">bUJt====rJIN1",
"{iRh%=fke%rRa{",
"{3bztJJJJhjC5{",
"{{yETIKKIRVw{{",
"{2lnsmDDBa6{{{",
"{7w<-1qq1{{{{{"
};
