/* XPM */
static char *cool_[] = {
/* columns rows colors chars-per-pixel */
"14 14 101 2",
"   c #00090F",
".  c #2F2400",
"X  c #422B00",
"o  c #463E05",
"O  c #6A3E00",
"+  c #664E00",
"@  c #6F4800",
"#  c #675B0D",
"$  c #002041",
"%  c #002144",
"&  c #002347",
"*  c #102E48",
"=  c #002A52",
"-  c #0B395B",
";  c #203B4B",
":  c #003969",
">  c #004075",
",  c #40554F",
"<  c #506150",
"1  c #8B4A00",
"2  c #8B4C00",
"3  c #AB5E00",
"4  c #C17E00",
"5  c #A49203",
"6  c #BC9200",
"7  c #BC9900",
"8  c #AF9E22",
"9  c #C78700",
"0  c #C78701",
"q  c #CA8C00",
"w  c #CA8D01",
"e  c #D19500",
"r  c #FB8300",
"t  c #FA8700",
"y  c #FB8700",
"u  c #FB8800",
"i  c #FA8900",
"p  c #FB8900",
"a  c #FA8A00",
"s  c #FB8A00",
"d  c #FA8B00",
"f  c #FB8B00",
"g  c #FA8C00",
"h  c #FB8C00",
"j  c #FA8D00",
"k  c #FC8E00",
"l  c #FB9000",
"z  c #FC9000",
"x  c #FB9900",
"c  c #D1AA00",
"v  c #C0A91B",
"b  c #D9A417",
"n  c #FCA600",
"m  c #FCA800",
"M  c #FCAB00",
"N  c #E9BA00",
"B  c #FEB800",
"V  c #E3B51B",
"C  c #C0A925",
"Z  c #EEC300",
"A  c #FDC300",
"S  c #FEC200",
"D  c #FEC303",
"F  c #FDC400",
"G  c #FDC600",
"H  c #FDC700",
"J  c #FDC800",
"K  c #FFD200",
"L  c #FAD700",
"P  c #FFDD00",
"I  c #FFE000",
"U  c #FFE200",
"Y  c #FFE300",
"T  c #EAC723",
"R  c #E7C03D",
"E  c #ECD132",
"W  c #FFE431",
"Q  c #909259",
"!  c #A09F5A",
"~  c #ECC746",
"^  c #FBDD47",
"/  c #F7D84A",
"(  c #FFE84B",
")  c #FFE75D",
"_  c #D0C360",
"`  c #FFE760",
"'  c #FFE866",
"]  c #004F8C",
"[  c #005697",
"{  c #1D69A2",
"}  c #0074C5",
"|  c #007BD1",
" . c #0082DC",
".. c #1F88D1",
"X. c #0091F3",
"o. c #0099FF",
"O. c #0F9FFF",
"+. c #239FF2",
"@. c #2FACFF",
"#. c #7FCCFF",
"$. c None",
/* pixels */
"$.$.$.$.$.t s f y $.$.$.$.$.",
"$.$.$.1 @ + 7 c . X 2 $.$.$.",
"$.$.j . o # v E 8 5 6 k $.$.",
"$ & & & & & & * & & & & & % ",
"& +.#.O.o.o.[ : @.#.O.o.o.: ",
"  { #.O.o.X.= & ..#.O.o.| & ",
"3 - } o.X.] < Q >  .o. .> O ",
"f T , & * ! ' ' _ ; & ; C g ",
"u D ( ~ ' ' ' ' ' ' R W H u ",
"$.n U w b / ` ) ^ V 0 U m $.",
"$.a S P e 4 q q 4 9 L H i $.",
"$.$.x Y I Z N N Z U J z $.$.",
"$.p B A M F K K G m d $.$.$.",
"$.s l u r u h h u $.$.$.$.$."
};
