/* XPM */
static char * cowbell1_xpm[] = {
"17 14 14 1",
" 	c None",
".	c #F9A500",
"+	c #FBBB00",
"@	c #FCC700",
"#	c #FAA400",
"$	c #FBB900",
"%	c #FFD800",
"&	c #FCBF00",
"*	c #FAA800",
"=	c #FAAE00",
"-	c #FAB300",
";	c #F9A400",
">	c #F9AB00",
",	c #BF7C01",
"                 ",
"                 ",
"        .+@#     ",
"       #$%%&*    ",
"       .%%%%=    ",
"       =%%%%$    ",
"       =%%%%$    ",
"       -%%%%&    ",
"       $%%%%@    ",
"       $%%%%@    ",
"      .@%%%%%.   ",
"      ;>=====;   ",
"         ,,      ",
"                 "};
