/* XPM */
static char *cry_[] = {
/* columns rows colors chars-per-pixel */
"14 14 115 2",
"   c black",
".  c #0B0800",
"X  c #0C0B03",
"o  c gray6",
"O  c #191403",
"+  c #262309",
"@  c #3F3918",
"#  c #3E3E3E",
"$  c #3F3F3F",
"%  c #574F0B",
"&  c #6F4800",
"*  c #5F5938",
"=  c #6F6948",
"-  c #7F7F7F",
";  c #A55D00",
":  c #836A00",
">  c #967500",
",  c #947800",
"<  c #8F7214",
"1  c #BF7C00",
"2  c #857828",
"3  c #E47C00",
"4  c #EA7E00",
"5  c #B3A32D",
"6  c #C6880A",
"7  c #D19500",
"8  c #EB8100",
"9  c #FB8300",
"0  c #FB8700",
"q  c #FA8800",
"w  c #FB8800",
"e  c #FA8900",
"r  c #FB8900",
"t  c #FA8A00",
"y  c #FB8A00",
"u  c #FA8B00",
"i  c #FB8B00",
"p  c #FA8C00",
"a  c #FB8C00",
"s  c #FA8D00",
"d  c #FC8E00",
"f  c #FB9000",
"g  c #FC9000",
"h  c #FB9900",
"j  c #D2A000",
"k  c #DBA500",
"l  c #DCA90A",
"z  c #D6A21E",
"x  c #FCA400",
"c  c #FCA600",
"v  c #FCA700",
"b  c #FCA800",
"n  c #FCAB00",
"m  c #E7B200",
"M  c #E5B50A",
"N  c #FEB800",
"B  c #D09A20",
"V  c #D19C23",
"C  c #EFC000",
"Z  c #FEC000",
"A  c #FDC300",
"S  c #FEC200",
"D  c #FDC400",
"F  c #FDC500",
"G  c #FDC600",
"H  c #FDC700",
"J  c #F4C900",
"K  c #F4CB00",
"L  c #FDC800",
"P  c #FFCF00",
"I  c #FFD200",
"U  c #FAD700",
"Y  c #FFD900",
"T  c #FFDA00",
"R  c #FFDD00",
"E  c #FFDF00",
"W  c #FFDC04",
"Q  c #FFD308",
"!  c #ECC21F",
"~  c #FFDD18",
"^  c #FFE000",
"/  c #FFE200",
"(  c #FFE300",
")  c #E9D224",
"_  c #EDC630",
"`  c #FFE53D",
"'  c #9F985F",
"]  c #8F8968",
"[  c #ECC849",
"{  c #FFE541",
"}  c #FFE543",
"|  c #FFE65B",
" . c #FFE95A",
".. c #FFEC5B",
"X. c #FFE764",
"o. c #FFE866",
"O. c #FFE967",
"+. c #F4E368",
"@. c #FFE96F",
"#. c #FFED70",
"$. c #9F9F9F",
"%. c gray75",
"&. c #D2D282",
"*. c #DFD492",
"=. c #FFEC82",
"-. c #FFEF95",
";. c #CFCBB2",
":. c #FFF2A9",
">. c #FFF3B2",
",. c gray81",
"<. c #FFF8CF",
"1. c #E8ECD4",
"2. c #FFF9D8",
"3. c #FFFEF5",
"4. c None",
/* pixels */
"4.4.4.4.4.3 y i 0 4.4.4.4.4.",
"4.4.4.4 & . : , j c 8 4.4.4.",
"4.4.; O + 5 } 2   % m d 4.4.",
"4.q < ' >.-.o.@.*.# X > q 4.",
"4.x ..3.- %.=.:.$.$.;.) v 4.",
"w Z #.,.  $ :.<.o   3. .F r ",
"y P { 2.@ ] -.>.= * 1.O.Q s ",
"i P W | X.X.X.X.X.X.&.+.I p ",
"w S E ~ z B V V V [ o.` H w ",
"4.c / k 1 7 M ! _ 6 l / b 4.",
"4.t S K C Y Y Y Y J U H e 4.",
"4.4.h ( ^ R T T R / L g 4.4.",
"4.r N A n D I I G b u 4.4.4.",
"4.y f w 9 w a a w 4.4.4.4.4."
};
