/* XPM */
static char *devil_[] = {
/* columns rows colors chars-per-pixel */
"14 14 107 2",
"   c black",
".  c #0F0400",
"X  c #100500",
"o  c #3F1300",
"O  c #6E0500",
"+  c #780900",
"@  c #7F2700",
"#  c #5F493F",
"$  c gray31",
"%  c #5F5F5F",
"&  c #6F6F6F",
"*  c #8C0002",
"=  c #8D0002",
"-  c #8E0002",
";  c #8E0004",
":  c #940400",
">  c #950400",
",  c #960400",
"<  c #970400",
"1  c #970500",
"2  c #960600",
"3  c #970700",
"4  c #990700",
"5  c #9A0700",
"6  c #9A0800",
"7  c #990802",
"8  c #9C0900",
"9  c #9D0900",
"0  c #9E0900",
"q  c #9D0A00",
"w  c #9F0C00",
"e  c #821000",
"r  c #831202",
"t  c #8C1500",
"y  c #A20E00",
"u  c #A30E00",
"i  c #A40F00",
"p  c #A91200",
"a  c #AB1300",
"s  c #B91D00",
"d  c #BA1F02",
"f  c #9F3100",
"g  c #A22407",
"h  c #AB2604",
"j  c #BB2406",
"k  c #B32901",
"l  c #B42B03",
"z  c #C72902",
"x  c #C92800",
"c  c #CA2900",
"v  c #CB2A00",
"b  c #CF2D00",
"n  c #D02D00",
"m  c #D12D00",
"M  c #D12E00",
"N  c #CF3F00",
"B  c #D33B01",
"V  c #DA3C00",
"C  c #DE3F03",
"Z  c #E33B00",
"A  c #E43B00",
"S  c #E53C00",
"D  c #E93F00",
"F  c #D04400",
"G  c #E44200",
"H  c #EB4200",
"J  c #ED4100",
"K  c #ED4200",
"L  c #EC4301",
"P  c #EE4200",
"I  c #EF4300",
"U  c #EF4400",
"Y  c #F04400",
"T  c #F14400",
"R  c #F14600",
"E  c #F34600",
"W  c #F24700",
"Q  c #F44700",
"!  c #F64900",
"~  c #F64B00",
"^  c #F64C00",
"/  c #F94A00",
"(  c #FA4A00",
")  c #FB4B00",
"_  c #FC4B00",
"`  c #FC4C00",
"'  c #FF4E00",
"]  c #FF4F00",
"[  c #FF5000",
"{  c #FF5100",
"}  c #FF5200",
"|  c #FF5300",
" . c #FF5B0F",
".. c #FF5E16",
"X. c #FF641F",
"o. c #FF6D2A",
"O. c #FF6F2F",
"+. c #FF7B3F",
"@. c #CF815F",
"#. c #DF865F",
"$. c #FF905F",
"%. c #FFB18F",
"&. c #FFD3BF",
"*. c #EFEFEF",
"=. c #FFF4EF",
"-. c gray100",
";. c None",
/* pixels */
";.;.;.;.;.> 0 q 2 ;.;.;.;.;.",
"4 1 ;.7 z L / / P x 6 ;., 5 ",
"i S j C { ] ] ] ] [ B d A p ",
": D F X N ' ' ' ' N . F K , ",
"* c } # . o f @ o . %  .M ; ",
"> J o.-.    @.#.    *.+.T 1 ",
"9 / ..=.& % $.$.& $ =.X._ u ",
"w ( ] O.&.%.' ' %.&.O.] ` y ",
": U [ h ' ' ' ' ' ' g [ E 3 ",
";.v } e k ! ' ' ! l r } n - ",
";.4 I ~ e + t t O e ^ Q 8 ;.",
";.;.s | { G V V G } W a ;.;.",
";.< Z H m Y ) ) R b q ;.;.;.",
";.6 p , = 1 y y 3 - ;.;.;.;."
};
