/* XPM */
static char *grin_[] = {
/* columns rows colors chars-per-pixel */
"14 14 114 2",
"   c black",
".  c gray6",
"X  c #2F2300",
"o  c #2F2400",
"O  c #342200",
"+  c #312906",
"@  c #422B00",
"#  c #502B00",
"$  c #493800",
"%  c gray31",
"&  c #5F5F5F",
"*  c #6F6F6F",
"=  c #9B5500",
"-  c #947800",
";  c #C76F00",
":  c #D97B00",
">  c #AA9715",
",  c #96892F",
"<  c #B4A22D",
"1  c #B9A83B",
"2  c #FB8300",
"3  c #FA8700",
"4  c #FB8700",
"5  c #FA8800",
"6  c #FB8800",
"7  c #FA8900",
"8  c #FB8900",
"9  c #FA8A00",
"0  c #FB8A00",
"q  c #FA8B00",
"w  c #FB8B00",
"e  c #FB8B03",
"r  c #FB8C00",
"t  c #FA8B05",
"y  c #FB9000",
"u  c #FC9000",
"i  c #FB9900",
"p  c #FA900A",
"a  c #FA9411",
"s  c #FCA401",
"d  c #FCA600",
"f  c #FCAD05",
"g  c #FCAC0C",
"h  c #FEB800",
"j  c #FCB017",
"k  c #FDB52A",
"l  c #FDC300",
"z  c #FEC200",
"x  c #FFD003",
"c  c #FEC410",
"v  c #FEC613",
"b  c #FFD210",
"n  c #FFE61C",
"m  c #D9C23A",
"M  c #FECC29",
"N  c #EFC63A",
"B  c #FACE36",
"V  c #ECD33F",
"C  c #FED137",
"Z  c #FED437",
"A  c #FED53E",
"S  c #DCB145",
"D  c #DCB146",
"F  c #DCB24F",
"G  c #E4BE52",
"H  c #E8C142",
"J  c #EBC747",
"K  c #E8C34E",
"L  c #ECCC4D",
"P  c #EFCD4D",
"I  c #F3CD40",
"U  c #FED546",
"Y  c #FED74B",
"T  c #FED855",
"R  c #F8DE56",
"E  c #F8DD59",
"W  c #FFEB53",
"Q  c #F4DB62",
"!  c #E4C377",
"~  c #FFE361",
"^  c #FFE362",
"/  c #FFE763",
"(  c #FFEB60",
")  c #FFE966",
"_  c #FFEA67",
"`  c #FFEC66",
"'  c #FFEB69",
"]  c #FFEE6C",
"[  c #FFED71",
"{  c #FFEE76",
"}  c #FFEB78",
"|  c #FFEC79",
" . c gray56",
".. c #9F9F9F",
"X. c #ECD38E",
"o. c #E8CF9A",
"O. c #FFEB80",
"+. c #FFEC80",
"@. c #FFEC81",
"#. c #FFEE83",
"$. c #FFEE8B",
"%. c #FFEF8C",
"&. c #FFEE93",
"*. c #FFF09D",
"=. c #FFF1A7",
"-. c #FFF3B1",
";. c #FFF4BA",
":. c #EFDFC2",
">. c #F3E7D1",
",. c #FFF9D8",
"<. c #EFEFEF",
"1. c #FFFDF5",
"2. c gray100",
"3. c None",
/* pixels */
"3.3.3.3.3.3 0 w 4 3.3.3.3.3.",
"3.3.3.# O X - - o @ = 3.3.3.",
"3.3.; $ > < V m 1 , + : 3.3.",
"3.5 M { =.-./ / &.-.%.U t 3.",
"3.s ` ,.....O.O... .1.[ k 3.",
"6 c #.2..   =.=..   <.$.T e ",
"0 b | 1.* & *.*.* % 1.} ~ a ",
"w x _ @.,.;./ / ;.,.+.) ^ p ",
"6 z ( K F H P P J S D ' Y 6 ",
"3.d W G 2.>.:.:.:.2.! ] j 3.",
"3.9 v E o.2.2.2.2.>.L A 7 3.",
"3.3.i n R X.:.:.o.Q Z u 3.3.",
"3.8 h l f C I N B g q 3.3.3.",
"3.0 y 6 2 6 r r 6 3.3.3.3.3."
};
