/* XPM */
static char *heart_[] = {
/* columns rows colors chars-per-pixel */
"14 14 15 1",
"  c black",
". c #0F0000",
"X c #1F0000",
"o c #3F0000",
"O c #4F0000",
"+ c #5F0000",
"@ c #7F0000",
"# c #8F0000",
"$ c #9F0000",
"% c #AF0000",
"& c #BF0000",
"* c #DF0000",
"= c #EF0000",
"- c red",
"; c None",
/* pixels */
";;;;;;;;;;;;;;",
";;         ;;;",
";;o@+ $-*o ;;;",
"; *-* =--% ;;;",
"; &--&---$ ;;;",
";;o-----=.;;;;",
";; &----@ ;;;;",
";;;O----X;;;;;",
";;;;&--& ;;;;;",
";;; +--+;;;;;;",
";;;;;== ;;;;;;",
";;;; ## ;;;;;;",
";;;;;XX;;;;;;;",
";;;;;  ;;;;;;;"
};
