/* XPM */
static char *monkey_[] = {
/* columns rows colors chars-per-pixel */
"18 14 101 2",
"   c black",
".  c #070707",
"X  c #0E0A07",
"o  c #0E0B08",
"O  c gray6",
"+  c #1C140F",
"@  c #101010",
"#  c #161310",
"$  c #171716",
"%  c gray9",
"&  c #1D1711",
"*  c #1E1B18",
"=  c #1F1F1E",
"-  c gray12",
";  c #2A1E17",
":  c #2C231A",
">  c #202020",
",  c #272626",
"<  c #2D2721",
"1  c #2F2E2D",
"2  c #2F2F2F",
"3  c #373635",
"4  c #3D3630",
"5  c #3F3E3D",
"6  c #3F3F3F",
"7  c #4A3B2C",
"8  c #553C2E",
"9  c #443B32",
"0  c #4B3E33",
"q  c #634636",
"w  c #68523E",
"e  c #71503E",
"r  c gray25",
"t  c #464544",
"y  c #4C4C4C",
"u  c #4E4D4C",
"i  c #505050",
"p  c #565656",
"a  c #5E5D5B",
"s  c gray37",
"d  c #5F5F5F",
"f  c #775E47",
"g  c #77624D",
"h  c #7F6955",
"j  c #606060",
"k  c #6E6C6A",
"l  c #6C6C6C",
"z  c #7B6F63",
"x  c #746E6A",
"c  c gray44",
"v  c #7D7771",
"b  c gray47",
"n  c #7E7C7A",
"m  c #856A50",
"M  c #866E57",
"N  c #947659",
"B  c #857064",
"V  c #897665",
"C  c #897B72",
"Z  c #9E856D",
"A  c #85807B",
"S  c #9A8C7F",
"D  c #A38162",
"F  c #A7907B",
"G  c #C68C6D",
"H  c #E3A07D",
"J  c #808080",
"K  c gray54",
"L  c #909090",
"P  c #9D9D9D",
"I  c #A0A0A0",
"U  c #AAAAAA",
"Y  c #AFAFAF",
"T  c #BBBBBB",
"R  c gray74",
"E  c gray",
"W  c #CBA888",
"Q  c #D9B08B",
"!  c #EEBD8F",
"~  c #F0C59D",
"^  c #F1C9A4",
"/  c #F2CDAB",
"(  c #F3D1B2",
")  c #F4D5B9",
"_  c #C0C0C0",
"`  c gray80",
"'  c #CECECE",
"]  c #D0D0D0",
"[  c gray85",
"{  c #DFDFDF",
"}  c #F6DEC7",
"|  c gray88",
" . c gray93",
".. c #EEEEEE",
"X. c #EFEFEF",
"o. c #FAEEE3",
"O. c #FBF2EA",
"+. c #FCF6F1",
"@. c #FDFAF8",
"#. c gray100",
"$. c None",
/* pixels */
"$.$.$.$.$...R J c J L _ $.$.$.$.$.$.",
"$.$.$.$.U @     5 1   o > ] $.$.$.$.",
"$.$.$.'     7 f F F f 7     ` $.$.$.",
" .L J % m M } ( ! ! ^ } V g @ J ] $.",
"|     h ~ @.#.@.^ ) #.#.O.! 4 o 2 $.",
"j : # W / #.- d } o.- d #.! Z o & I ",
"r N = S ~ X.- - z v O 6 +.Q A   f J ",
"r D = n A 9 ; e e e q + 0 n n   w L ",
"K : * n 3 ; H H H H H G X t k   < { ",
"$.l   a B q             G C u   E $.",
"$.$.T O , q H H H H H H q x O [ $.$.",
"$.$.$.p 5 , X q e e 8   5 1 b $.$.$.",
"$.$.$.$.y $ t 5 5 5 t u . s $.$.$.$.",
"$.$.$.$.$.P r         i Y $.$.$.$.$."
};
