/* XPM */
static char *rockout_[] = {
/* columns rows colors chars-per-pixel */
"18 14 19 1",
"  c #BE7B00",
". c #BF7B00",
"X c #BF7C00",
"o c #C07D00",
"O c #C18000",
"+ c #C48300",
"@ c #C78700",
"# c #CA8C00",
"$ c #CD9000",
"% c #D09500",
"& c #D79F00",
"* c #DCA500",
"= c #E0AB00",
"- c #E8B700",
"; c #EDC000",
": c #F3C700",
"> c #F9CE00",
", c #FFD800",
"< c None",
/* pixels */
"<<<<<<<<<<<<<<<<<<",
"<<<X@X<<<<<o@+.<<<",
"<<<X,; <<<<X;>X<<<",
"<<<X,,X<<<<X,,X<<<",
"<<<X,-X <  X,,X<<<",
"<<<X,$=>X%,#;,X<<<",
"<<<X,#-,X&;@*-X<<<",
"<<<X,#-,XX@###X<<<",
"<<<X,&*,X=,,,,X<<<",
"<<<X,:OO##&=,,X<<<",
"<<<X,,,,,;&=,,X<<<",
"<<<+,,,,,,,,,, <<<",
"<<<XXXXXXXXXXX<<<<",
"<<<<<<<<<<<<<<<<<<"
};
