/* XPM */
static char *frown_[] = {
/* columns rows colors chars-per-pixel */
"14 14 105 2",
"   c black",
".  c #0C0901",
"X  c gray6",
"o  c #100F07",
"O  c #1A1000",
"+  c #2F2300",
"@  c #3A3614",
"#  c #633500",
"$  c #754100",
"%  c #665103",
"&  c gray31",
"*  c #5F5F5F",
"=  c #6F6D65",
"-  c #6F6F6F",
";  c #A95B00",
":  c #BF7C00",
">  c #857B2B",
",  c #E87F00",
"<  c #AA8200",
"1  c #BC9900",
"2  c #CB8F06",
"3  c #D19500",
"4  c #D09A1E",
"5  c #EB8100",
"6  c #FB8300",
"7  c #FB8700",
"8  c #FA8800",
"9  c #FB8800",
"0  c #FA8900",
"q  c #FB8900",
"w  c #FA8A00",
"e  c #FB8A00",
"r  c #FA8B00",
"t  c #FB8B00",
"y  c #FA8C00",
"u  c #FB8C00",
"i  c #FA8D00",
"p  c #FC8E00",
"a  c #FB9000",
"s  c #FC9000",
"d  c #FB9900",
"f  c #D3A509",
"g  c #FCA600",
"h  c #FCA700",
"j  c #FCA504",
"k  c #FCA800",
"l  c #FCAB00",
"z  c #E9B900",
"x  c #E8BD00",
"c  c #FEB800",
"v  c #EABD10",
"b  c #E3B51B",
"n  c #D19C23",
"m  c #C8A329",
"M  c #DBA923",
"N  c #E3BA3A",
"B  c #EFC000",
"V  c #FDC300",
"C  c #FEC200",
"Z  c #FDC400",
"A  c #FDC500",
"S  c #FDC600",
"D  c #FDC700",
"F  c #FEC105",
"G  c #FDC800",
"H  c #FFCF00",
"J  c #FFD200",
"K  c #FAD700",
"L  c #FFD900",
"P  c #FFDA00",
"I  c #FFDD00",
"U  c #FFDD03",
"Y  c #FFE000",
"T  c #FFE200",
"R  c #FFE300",
"E  c #FFE10E",
"W  c #FFE130",
"Q  c #FFE23E",
"!  c #FFE43D",
"~  c #BDAC45",
"^  c #D9C94B",
"/  c #FFE44E",
"(  c #FFE650",
")  c #FFE85B",
"_  c #FFEA5D",
"`  c #DFD270",
"'  c #FFEA63",
"]  c #FFE866",
"[  c #FFEE6A",
"{  c #FFEC6D",
"}  c gray56",
"|  c #9F9F9F",
" . c #EFE18F",
".. c #FFEC82",
"X. c #FFF082",
"o. c #FFF19F",
"O. c #FFF2A9",
"+. c #FFF3B2",
"@. c #FFF5BC",
"#. c #DFDFDF",
"$. c #FFF9D9",
"%. c #EFEFEF",
"&. c #FFFEF5",
"*. c gray100",
"=. c None",
/* pixels */
"=.=.=.=.=.# , t 7 =.=.=.=.=.",
"=.=.=.; O + x 1 < g 5 =.=.=.",
"=.=.$ . > _ ) ~ o @ f p =.=.",
"=.8 m ` O.+.] ]  .=   % 8 =.",
"=.j [ $.| | ....| } #.^ h =.",
"9 F X.*.X   O.O.X   %.{ A q ",
"e H ' &.- * o.o.- & &.( J i ",
"t H ! ..$.@.] ] @.$...W J y ",
"9 C E / N n n n 4 M Q U D 9 ",
"=.g T L : 2 b v 3 : z T k =.",
"=.w C I z L L L L B K D 0 =.",
"=.=.d R Y I P P I T G s =.=.",
"=.q c V l Z J J S k r =.=.=.",
"=.e a 9 6 9 u u 9 =.=.=.=.=."
};
