/* XPM */
static char *shocked_[] = {
/* columns rows colors chars-per-pixel */
"14 14 101 2",
"   c black",
".  c gray6",
"X  c #2F2300",
"o  c #2F2400",
"O  c #342200",
"+  c #302603",
"@  c #422B00",
"#  c #502B00",
"$  c #443A00",
"%  c #51400B",
"&  c #685E22",
"*  c gray31",
"=  c #5F5F5F",
"-  c #6F6F6F",
";  c #9B5500",
":  c #947800",
">  c #C76F00",
",  c #D97B00",
"<  c #A48C00",
"1  c #B99D00",
"2  c #918627",
"3  c #B5A633",
"4  c #B8A93A",
"5  c #B9A93C",
"6  c #FB8300",
"7  c #FA8700",
"8  c #FB8700",
"9  c #FA8800",
"0  c #FB8800",
"q  c #FA8900",
"w  c #FB8900",
"e  c #FA8A00",
"r  c #FB8A00",
"t  c #FA8B00",
"y  c #FB8B00",
"u  c #FA8C00",
"i  c #FB8C00",
"p  c #FA8D00",
"a  c #FB9000",
"s  c #FC9000",
"d  c #FB9900",
"f  c #CFB200",
"g  c #FCA600",
"h  c #FCA700",
"j  c #FCA504",
"k  c #FCA800",
"l  c #FCAB00",
"z  c #FEB800",
"x  c #D7BD2A",
"c  c #FDC300",
"v  c #FEC200",
"b  c #FDC400",
"n  c #FDC500",
"m  c #FDC600",
"M  c #FDC700",
"N  c #FDC800",
"B  c #FFD200",
"V  c #FFD900",
"C  c #FFD902",
"Z  c #FFDD00",
"A  c #FFDF00",
"S  c #FFD109",
"D  c #FFDE08",
"F  c #FDC913",
"G  c #FEC619",
"H  c #FFE000",
"J  c #FFE200",
"K  c #FFE300",
"L  c #FFD729",
"P  c #FFDF2A",
"I  c #FECE31",
"U  c #FFE133",
"Y  c #FFE23D",
"T  c #DCC745",
"R  c #EED74B",
"E  c #FFE651",
"W  c #FFEB50",
"Q  c #FFE659",
"!  c #FFE65C",
"~  c #FFE858",
"^  c #FFE866",
"/  c #FFEE6A",
"(  c #FFEB6F",
")  c #FFED7A",
"_  c #FFF07E",
"`  c gray56",
"'  c #9F9F9F",
"]  c #FFEC82",
"[  c #FFEF83",
"{  c #FFF085",
"}  c #FFF28C",
"|  c #FFEF95",
" . c #FFF19F",
".. c #FFF2A9",
"X. c #FFF3B2",
"o. c #FFF5BC",
"O. c #FFF9D9",
"+. c #EFEFEF",
"@. c #FFFEF5",
"#. c gray100",
"$. c None",
/* pixels */
"$.$.$.$.$.7 r y 8 $.$.$.$.$.",
"$.$.$.# O X : : o @ ; $.$.$.",
"$.$.> % 3 5 R T 4 2 + , $.$.",
"$.9 I _ ..X.^ ^ | X.} F 9 $.",
"$.j / O.' ' ] ] ' ` @.W h $.",
"0 G { #..   .....   +.[ n w ",
"r L ) @.- =  . .- * @.( B p ",
"y S ~ ] O.o.^ ^ o.O.] E B u ",
"0 v A P ! ^ ^ ^ ^ Q Y D M 0 ",
"$.g J V C U &   x V V J k $.",
"$.e v Z V V $   1 V H M q $.",
"$.$.d K H Z f < Z J N s $.$.",
"$.w z c l b B B m k t $.$.$.",
"$.r a 0 6 0 i i 0 $.$.$.$.$."
};
