/* XPM */
static char *slant_[] = {
/* columns rows colors chars-per-pixel */
"14 14 115 2",
"   c black",
".  c #381E00",
"X  c #3C2406",
"o  c #332D0B",
"O  c #3F3F3F",
"+  c #673A00",
"@  c #514600",
"#  c #5F5200",
"$  c #6E5F00",
"%  c #605617",
"&  c gray31",
"*  c #7F7F7F",
"=  c #967400",
"-  c #897427",
";  c #EA7E00",
":  c #8A7E72",
">  c #A38F00",
",  c #B39E29",
"<  c #C48611",
"1  c #C58712",
"2  c #C98E16",
"3  c #D29C1B",
"4  c #EB8100",
"5  c #FB8300",
"6  c #FA8700",
"7  c #FB8700",
"8  c #FA8800",
"9  c #FB8800",
"0  c #FA8900",
"q  c #FB8900",
"w  c #FA8A00",
"e  c #FB8A00",
"r  c #FA8B00",
"t  c #FB8B00",
"y  c #FB8C00",
"u  c #FA8D00",
"i  c #FB9000",
"p  c #FC9000",
"a  c #FB9900",
"s  c #DBA815",
"d  c #FCA400",
"f  c #FCA600",
"g  c #FCA800",
"h  c #FCAB00",
"j  c #FCAB09",
"k  c #E9B900",
"l  c #F3BB00",
"z  c #FEB800",
"x  c #FB9620",
"c  c #C2A921",
"v  c #DCAE21",
"b  c #D9A82D",
"n  c #DDAF33",
"m  c #E4BB3E",
"M  c #E6CE07",
"N  c #FEC000",
"B  c #FDC300",
"V  c #FEC200",
"C  c #FDC400",
"Z  c #FDC600",
"A  c #FDC702",
"S  c #FEC306",
"D  c #FFCF00",
"F  c #FFD200",
"G  c #FFDA00",
"H  c #FFDD00",
"J  c #FFDF00",
"K  c #FFD904",
"L  c #FFDB0B",
"P  c #FFDD09",
"I  c #EFCB17",
"U  c #FFE000",
"Y  c #FFE200",
"T  c #FFE300",
"R  c #FFE123",
"E  c #FFE628",
"W  c #FFE23F",
"Q  c #BDB04A",
"!  c #FBBF72",
"~  c #EBC541",
"^  c #EDD344",
"/  c #F0CF50",
"(  c #F4D75F",
")  c #FFE64D",
"_  c #FFE65E",
"`  c #FFEB58",
"'  c #FFEC5A",
"]  c #FDC178",
"[  c #FFE764",
"{  c #FFEA61",
"}  c #FFE866",
"|  c #FFE96F",
" . c #FFEB79",
".. c #9F9F9F",
"X. c #BFB88F",
"o. c #AFAFAF",
"O. c #BFBEB6",
"+. c gray75",
"@. c #FDC78A",
"#. c #FED484",
"$. c #FDD29A",
"%. c #FFEC82",
"&. c #FDE792",
"*. c #FFF19F",
"=. c #FFF2A9",
"-. c #EFE6B5",
";. c #FFF3B2",
":. c #FFF6B5",
">. c #DFDFDF",
",. c #FFF8CF",
"<. c #FFFAD9",
"1. c #EFEFEF",
"2. c #FFFBE2",
"3. c #FFFEF5",
"4. c None",
/* pixels */
"4.4.4.4.4.6 e t 7 4.4.4.4.4.",
"4.4.4.; d N D D V f 4 4.4.4.",
"4.4.u V Y $ @ # > M = + . 4.",
"4.8 S E c o % , ^ [ Q - X : ",
"4.d ' } } | *.;. .} %.:.#.@.",
"9 N { } } ;.+.* =.} O.* 1.] ",
"e D ) } } 3.&   X.%.&   o.$.",
"t D P _ } 2...O -. ...O >.! ",
"9 V J s m ( ,.,.| } *.<.&.x ",
"4.f Y k 3 1 2 n / } } ` j 4.",
"4.w V H K W ~ b 2 < v A 0 4.",
"4.4.a T U H G L R I l p 4.4.",
"4.q z B h C F F Z g r 4.4.4.",
"4.e i 9 5 9 y y 9 4.4.4.4.4."
};
