/* XPM */
static char *smile_[] = {
/* columns rows colors chars-per-pixel */
"14 14 111 2",
"   c black",
".  c gray6",
"X  c #1F1D0D",
"o  c #2F2400",
"O  c #282107",
"+  c #5F3F00",
"@  c #6F4800",
"#  c #7C4400",
"$  c gray31",
"%  c #5F5F5F",
"&  c #6F6F6F",
"*  c #8B4A00",
"=  c #886804",
"-  c #997F0D",
";  c #887E2F",
":  c #C76F00",
">  c #C87100",
",  c #C3830A",
"<  c #CB9115",
"1  c #CC931B",
"2  c #D29D1C",
"3  c #FB8300",
"4  c #FA8700",
"5  c #FB8700",
"6  c #FA8800",
"7  c #FB8800",
"8  c #FA8900",
"9  c #FB8900",
"0  c #FA8A00",
"q  c #FB8A00",
"w  c #FA8B00",
"e  c #FB8B00",
"r  c #FA8C00",
"t  c #FB8C00",
"y  c #FA8D00",
"u  c #FB9000",
"i  c #FC9000",
"p  c #FB9900",
"a  c #D8A202",
"s  c #DBA700",
"d  c #DFB006",
"f  c #DAA710",
"g  c #FCA600",
"h  c #FCA800",
"j  c #FCAB00",
"k  c #FCAA0A",
"l  c #E8BD00",
"z  c #FEB800",
"x  c #FCAA11",
"c  c #EAB81B",
"v  c #D4A127",
"b  c #D5A228",
"n  c #E0B537",
"m  c #E1B639",
"M  c #FDC300",
"N  c #FEC200",
"B  c #FDC400",
"V  c #FDC600",
"C  c #FDC700",
"Z  c #FDC800",
"A  c #FEC40A",
"S  c #FFD200",
"D  c #FDCB1A",
"F  c #FFD71F",
"G  c #FFE000",
"H  c #FFE200",
"J  c #FFE300",
"K  c #FADD26",
"L  c #FADB2A",
"P  c #FFDA2E",
"I  c #FECD37",
"U  c #FFD831",
"Y  c #FDD33F",
"T  c #FFE521",
"R  c #B0A349",
"E  c #BFB14E",
"W  c #BDB368",
"Q  c #E8C244",
"!  c #ECC849",
"~  c #FFDB43",
"^  c #E0CE5B",
"/  c #F4D555",
"(  c #FFEA4C",
")  c #FFE854",
"_  c #FFE965",
"`  c #FFE866",
"'  c #FFE967",
"]  c #FFEA68",
"[  c #FFEB68",
"{  c #FFED6B",
"}  c #FFEE6C",
"|  c #FFEC79",
" . c #FFED7A",
".. c gray56",
"X. c #9F9F9F",
"o. c #FFEC82",
"O. c #FFEF85",
"+. c #FFEE8C",
"@. c #FFF085",
"#. c #FFF186",
"$. c #FFEF95",
"%. c #FFF19F",
"&. c #EFE5AC",
"*. c #FFF2A9",
"=. c #FFF3B2",
"-. c #FFF5BC",
";. c #FFF9D9",
":. c #EFEFEF",
">. c #FFFEF5",
",. c gray100",
"<. c None",
/* pixels */
"<.<.<.<.<.4 q e 5 <.<.<.<.<.",
"<.<.<.* @ = l - o + # <.<.<.",
"<.<.:   X R _ ^ E ; O > <.<.",
"<.6 c W &.=.` ` $.=.#.Y 6 <.",
"<.x { >.X.X.o.o.X...>.} k <.",
"7 I @.,..   *.*..   :.O.D 9 ",
"q ~  .,.& % %.%.& $ ,.| P y ",
"e U ] +.;.-.` ` -.;.+.' F r ",
"7 A [ ` ` ` ` ` ` ` Q ) C 7 ",
"<.g ( b / ` ` ` ` ! 1 T h <.",
"<.0 N L 2 v m n < , K C 8 <.",
"<.<.p J G d f a s H Z i <.<.",
"<.9 z M j B S S V h w <.<.<.",
"<.q u 7 3 7 t t 7 <.<.<.<.<."
};
