/* XPM */
static char *straight_face_[] = {
/* columns rows colors chars-per-pixel */
"14 14 101 2",
"   c black",
".  c gray6",
"X  c #341C00",
"o  c #2F2300",
"O  c #2F2400",
"+  c #332200",
"@  c #342200",
"#  c #312703",
"$  c #522D00",
"%  c #493802",
"&  c gray31",
"*  c #5F5F5F",
"=  c #6F6F6F",
"-  c #836A00",
";  c #BF7C00",
":  c #BF7C01",
">  c #807522",
",  c #C76F00",
"<  c #D97B00",
"1  c #B3A42D",
"2  c #B6A635",
"3  c #B9A93C",
"4  c #CA8C00",
"5  c #FB8300",
"6  c #FA8700",
"7  c #FB8700",
"8  c #FA8800",
"9  c #FB8800",
"0  c #FA8900",
"q  c #FB8900",
"w  c #FA8A00",
"e  c #FB8A00",
"r  c #FA8B00",
"t  c #FB8B00",
"y  c #FA8C00",
"u  c #FB8C00",
"i  c #FA8D00",
"p  c #FB9000",
"a  c #FC9000",
"s  c #FB9900",
"d  c #FCA400",
"f  c #FCA600",
"g  c #FCA700",
"h  c #FCA800",
"j  c #FCAB00",
"k  c #FEB800",
"l  c #FDC300",
"z  c #FEC200",
"x  c #FDC400",
"c  c #FDC500",
"v  c #FDC600",
"b  c #FDC700",
"n  c #FDC800",
"m  c #FFCF00",
"M  c #FEC40F",
"N  c #FFD200",
"B  c #FFD900",
"V  c #FFDA00",
"C  c #FFDD00",
"Z  c #FFDF00",
"A  c #FDC910",
"S  c #FFDD1E",
"D  c #FFE000",
"F  c #FFE200",
"G  c #FFE300",
"H  c #FECD2F",
"J  c #FFD522",
"K  c #FFE32E",
"L  c #DCC745",
"P  c #EED649",
"I  c #FFE540",
"U  c #FFE346",
"Y  c #FFE942",
"T  c #FFE54E",
"R  c #FFE553",
"E  c #FFE756",
"W  c #FFE658",
"Q  c #FFEC58",
"!  c #FFE760",
"~  c #FFE866",
"^  c #FFEB67",
"/  c #FFEA6E",
"(  c #FFED7A",
")  c #FFF07E",
"_  c gray56",
"`  c #9F9F9F",
"'  c #FFEC82",
"]  c #FFEE8B",
"[  c #FFEE8C",
"{  c #FFF084",
"}  c #FFF18A",
"|  c #FFEF95",
" . c #FFF19F",
".. c #FFF2A9",
"X. c #FFF3B2",
"o. c #FFF5BC",
"O. c #FFF9D9",
"+. c #EFEFEF",
"@. c #FFFEF5",
"#. c gray100",
"$. c None",
/* pixels */
"$.$.$.$.$.6 e t 7 $.$.$.$.$.",
"$.$.$.X @ o - - O + $ $.$.$.",
"$.$., # > 2 P L 3 1 % < $.$.",
"$.8 H ) ..X.~ ~ | X.} A 8 $.",
"$.d Q @.` ` ' ' ` _ @.Y g $.",
"9 M { #..   .....   +.^ c q ",
"e J ( #.= *  . .= & #./ N i ",
"t m I ] O.o.~ ~ o.O.[ E N y ",
"9 z Z S U T R ! ~ ~ W K b 9 ",
"$.f F 4 ; ; ; ; : : 4 F h $.",
"$.w z C B B B B B B D b 0 $.",
"$.$.s G D C V V C F n a $.$.",
"$.q k l j x N N v h r $.$.$.",
"$.e p 9 5 9 u u 9 $.$.$.$.$."
};
