/* XPM */
static char * equal_tongue1_xpm[] = {
"14 14 108 2",
"  	c None",
". 	c #FB8700",
"+ 	c #FB8A00",
"@ 	c #FB8C00",
"# 	c #5E3300",
"$ 	c #1A1000",
"% 	c #342806",
"& 	c #FFD313",
"* 	c #FFCF00",
"= 	c #FEC200",
"- 	c #FCA600",
"; 	c #EC8100",
"> 	c #C77000",
", 	c #0E0B03",
"' 	c #8F853B",
") 	c #FFEC6A",
"! 	c #FFEA68",
"~ 	c #FFE95F",
"{ 	c #3F3A1A",
"] 	c #2F2C13",
"^ 	c #493C12",
"/ 	c #EB8603",
"( 	c #FB8800",
"_ 	c #FED141",
": 	c #FFF07E",
"< 	c #FFF2A9",
"[ 	c #FFF3B2",
"} 	c #FFE866",
"| 	c #FFEF95",
"1 	c #CFC89F",
"2 	c #6F6B4A",
"3 	c #DAB42F",
"4 	c #FCAD1B",
"5 	c #FFEE6C",
"6 	c #FFF9D9",
"7 	c #AFAFAF",
"8 	c #000000",
"9 	c #A09240",
"0 	c #FFEC82",
"a 	c #BFBFBF",
"b 	c #DFDFDF",
"c 	c #FFFEF5",
"d 	c #FFEF71",
"e 	c #FCA803",
"f 	c #FED041",
"g 	c #FFF085",
"h 	c #FFFFFF",
"i 	c #9F9F9F",
"j 	c #8F8342",
"k 	c #DFD288",
"l 	c #2F2F2F",
"m 	c #FFF08E",
"n 	c #FDCC1E",
"o 	c #FFDE50",
"p 	c #FFED7A",
"q 	c #EFEFEF",
"r 	c #EFE18F",
"s 	c #4F4F4F",
"t 	c #FFEC79",
"u 	c #FFD40B",
"v 	c #FB8B00",
"w 	c #FFD626",
"x 	c #FFEA66",
"y 	c #FFF5BC",
"z 	c #FFEC81",
"A 	c #FFE235",
"B 	c #FFD200",
"C 	c #FFE323",
"D 	c #FFE75C",
"E 	c #FFE865",
"F 	c #FFE553",
"G 	c #FFDE20",
"H 	c #FFDD00",
"I 	c #FDC700",
"J 	c #FFE200",
"K 	c #E9B901",
"L 	c #C07D02",
"M 	c #C18009",
"N 	c #C1810B",
"O 	c #C2820C",
"P 	c #DDAD22",
"Q 	c #FCA800",
"R 	c #FFDC15",
"S 	c #FFCC72",
"T 	c #FE7B99",
"U 	c #FCA4A7",
"V 	c #FFC457",
"W 	c #FB8900",
"X 	c #FB9900",
"Y 	c #FFE300",
"Z 	c #FFE004",
"` 	c #FFE961",
" .	c #FFE967",
"..	c #FF8491",
"+.	c #FF7597",
"@.	c #FF8492",
"#.	c #FDC137",
"$.	c #FC9100",
"%.	c #FEB800",
"&.	c #FDC300",
"*.	c #FCAB00",
"=.	c #FDC812",
"-.	c #FFDF4F",
";.	c #FFDF4B",
">.	c #FDD33A",
",.	c #FCB21F",
"'.	c #FB8B02",
").	c #FB8400",
"          . + @ .           ",
"      # $ % & * = - ;       ",
"    > , ' ) ! ~ { ] ^ /     ",
"  ( _ : < [ } } | 1 2 3 (   ",
"  4 5 6 7 8 9 0 a b c d e   ",
". f g h i 8 j k 8 l h m n ( ",
"+ o p c q a r r 8 s c t u @ ",
"v w x 0 6 y } } y 6 z A B @ ",
". = C D } } } } E F G H I ( ",
"  - J K L M N O O N P J Q   ",
"  + = H R } S T U T V I W   ",
"    X Y Z `  ...+.@.#.$.    ",
"  W %.&.*.=.-.;.>.,.'.      ",
"  + $.( ).( @ @ (           "};
