/* XPM */
static char *wince_[] = {
/* columns rows colors chars-per-pixel */
"14 14 73 1",
"  c black",
". c #0A0900",
"X c #1F1B00",
"o c #372F00",
"O c #443A00",
"+ c #514500",
"@ c #605100",
"# c #6F5E00",
"$ c #806D00",
"% c #8F7E00",
"& c #917D00",
"* c #927C00",
"= c #BF7C00",
"- c #EA7E00",
"; c #A58C00",
": c #B99D00",
"> c #CA8C00",
", c #D19500",
"< c #D59B00",
"1 c #EB8100",
"2 c #FB8300",
"3 c #FA8700",
"4 c #FB8700",
"5 c #FA8800",
"6 c #FB8800",
"7 c #FA8900",
"8 c #FB8900",
"9 c #FA8A00",
"0 c #FB8A00",
"q c #FA8B00",
"w c #FB8B00",
"e c #FA8C00",
"r c #FB8C00",
"t c #FA8D00",
"y c #FC8E00",
"u c #FB9000",
"i c #FC9000",
"p c #FB9900",
"a c #DBA500",
"s c #CFB000",
"d c #CEB300",
"f c #E0AC00",
"g c #FCA400",
"h c #FCA600",
"j c #FCA700",
"k c #FCA800",
"l c #FCAB00",
"z c #E9B900",
"x c #FEB800",
"c c #E7C400",
"v c #EFC000",
"b c #E6CB00",
"n c #FEC000",
"m c #FDC300",
"M c #FEC200",
"N c #FDC400",
"B c #FDC500",
"V c #FDC600",
"C c #FDC700",
"Z c #FDC800",
"A c #FFCF00",
"S c #FFD200",
"D c #FAD700",
"F c #FFD900",
"G c #FFDA00",
"H c #FFDC00",
"J c #FFDD00",
"K c #FFDE00",
"L c #FFDF00",
"P c #FFE000",
"I c #FFE200",
"U c #FFE300",
"Y c None",
/* pixels */
"YYYYY30w4YYYYY",
"YYY-gnAAMh1YYY",
"YYtMIKHHKUNyYY",
"Y5MIFFFFFFIB5Y",
"Ygb@#sFFF*@%jY",
"6nd@X $cX +&B8",
"0AHFcOo:.;FGSt",
"wAHFFFFFFFFGSe",
"6MLFa>>>><FJC6",
"YhIF=>fz,=zIkY",
"Y9MJzFFFFvDC7Y",
"YYpUPJGGJIZiYY",
"Y8xmlNSSVkqYYY",
"Y0u626rr6YYYYY"
};
