/* XPM */
static char *wink_[] = {
/* columns rows colors chars-per-pixel */
"14 14 103 2",
"   c black",
".  c gray6",
"X  c #332200",
"o  c #3D370A",
"O  c #3F3918",
"+  c #522D00",
"@  c #493800",
"#  c #6F652B",
"$  c #5F5F5F",
"%  c #B76700",
"&  c #C17E00",
"*  c #EA7E00",
"=  c #C78803",
"-  c #C88A06",
";  c #C98C0C",
":  c #CD9100",
">  c #FB8300",
",  c #FA8700",
"<  c #FB8700",
"1  c #FA8800",
"2  c #FB8800",
"3  c #FA8900",
"4  c #FB8900",
"5  c #FA8A00",
"6  c #FB8A00",
"7  c #FA8B00",
"8  c #FB8B00",
"9  c #FA8C00",
"0  c #FB8C00",
"q  c #FA8D00",
"w  c #FB9000",
"e  c #FC9000",
"r  c #FB9900",
"t  c #D8A100",
"y  c #D8A101",
"u  c #DBA700",
"i  c #D8A204",
"p  c #DFAE00",
"a  c #FCA400",
"s  c #FCA600",
"d  c #FCA800",
"f  c #FCAB00",
"g  c #FCAA09",
"h  c #E8BD00",
"j  c #FEB800",
"k  c #FEC000",
"l  c #FDC300",
"z  c #FEC200",
"x  c #FDC400",
"c  c #FDC600",
"v  c #FDC700",
"b  c #FDC800",
"n  c #FFCF00",
"m  c #FFD200",
"M  c #FAD500",
"N  c #FAD700",
"B  c #FFD204",
"V  c #FFD618",
"C  c #FFE000",
"Z  c #FFE200",
"A  c #FFE300",
"S  c #FFE117",
"D  c #FFE417",
"F  c #FDCC21",
"G  c #E7C03F",
"H  c #EAC43E",
"J  c #FDD136",
"K  c #FFE627",
"L  c #FFE53E",
"P  c #FFE63E",
"I  c #AF9E44",
"U  c #BFAD4A",
"Y  c #CFBB50",
"T  c #CFBD5B",
"R  c #E7C143",
"E  c #EBC747",
"W  c #ECD640",
"Q  c #FFE74D",
"!  c #FFE64F",
"~  c #FFE754",
"^  c #FFE758",
"/  c #FFEA5B",
"(  c #FFE662",
")  c #FFE763",
"_  c #FFE764",
"`  c #FFE864",
"'  c #FFE865",
"]  c #FFE866",
"[  c #FFEE6C",
"{  c #FFEB71",
"}  c #FFEC79",
"|  c #FFEF7A",
" . c #9F9F9F",
".. c #FFEC82",
"X. c #FFEF85",
"o. c #FFF19F",
"O. c #FFF2A9",
"+. c #FFF3B2",
"@. c #FFF5BC",
"#. c #FFF9D9",
"$. c gray97",
"%. c #FFFEF5",
"&. c None",
/* pixels */
"&.&.&.&.&., 6 8 < &.&.&.&.&.",
"&.&.&.* a k n h @ X + &.&.&.",
"&.&.q z D P ~ ^ W o   % &.&.",
"&.1 z Q ( ) ` ] +.O.| J 1 &.",
"&.a K ) ) ) ) .. . .#.[ g &.",
"2 k / # O O I O.  . $.X.F 4 ",
"6 n { T U U Y o.$ $ %.} V q ",
"8 n ! ' _ _ ] ] @.#...' B 9 ",
"2 z S E ] ] ] ] ] ] R L v 2 ",
"&.s Z ; G ) ] ] ] H - Z d &.",
"&.5 z M : : y i = & N v 3 &.",
"&.&.r A C p t t u Z b e &.&.",
"&.4 j l f x m m c d 7 &.&.&.",
"&.6 w 2 > 2 0 0 2 &.&.&.&.&."
};
